<svg
  xmlns="http://www.w3.org/2000/svg"
  viewBox="0 0 64 64"
  width="64"
  height="64"
  role="img"
  aria-label="Paintbrush and keyboard combined logo"
  style="overflow: visible;"
>
  <!-- Paintbrush part -->
  <g>
    <path
      d="M44 4c-4 0-7.8 2.2-10 6l-4 7L48 35l7-4c3.8-2.2 6-6 6-10C61 11.8 53.2 4 44 4Z"
      fill="#3B82F6"
    />
    <path
      d="M30 18L10 38c-2 2-3 5-3 8s1.4 5.9 3.9 8.1c.8.7 2 .7 2.8 0L26 49c2.5-1.3 4.6-3.4 6-6l10-17-12-8Z"
      fill="#1E3A8A"
    />
    <path
      d="M11 44c0 4 3 7 7 7"
      stroke="#fff"
      stroke-width="2"
      stroke-linecap="round"
    />
  </g>

  <!-- Keyboard part -->
  <g transform="translate(0, 14)">
    <rect
      x="4"
      y="16"
      width="56"
      height="32"
      rx="4"
      fill="#1E40AF"
      stroke="#3B82F6"
      stroke-width="2"
      style="transform-origin: center;"
      class="keyboard-body"
    />
    <rect x="10" y="22" width="6" height="6" rx="1" fill="#FFFFFF" />
    <rect x="20" y="22" width="6" height="6" rx="1" fill="#FFFFFF" />
    <rect x="30" y="22" width="6" height="6" rx="1" fill="#FFFFFF" />
    <rect x="40" y="22" width="6" height="6" rx="1" fill="#FFFFFF" />
    <rect x="50" y="22" width="6" height="6" rx="1" fill="#FFFFFF" />
    <rect x="10" y="32" width="36" height="6" rx="1" fill="#FFFFFF" />
  </g>

  <style>
    /* Subtle floating animation for paintbrush */
    path:nth-child(1),
    path:nth-child(2),
    path:nth-child(3) {
      animation: float 4s ease-in-out infinite;
      transform-origin: 40px 25px;
    }

    /* Keyboard pulse */
    .keyboard-body {
      animation: pulse 3s ease-in-out infinite;
    }

    @keyframes float {
      0%, 100% {
        transform: translateY(0);
      }
      50% {
        transform: translateY(-3px) rotate(2deg);
      }
    }

    @keyframes pulse {
      0%, 100% {
        filter: drop-shadow(0 0 2px #3b82f6aa);
      }
      50% {
        filter: drop-shadow(0 0 8px #3b82f6ff);
      }
    }
  </style>
</svg>
